<?xml version="1.0" encoding="UTF-8"?>
<svg xmlns="http://www.w3.org/2000/svg" xmlns:xlink="http://www.w3.org/1999/xlink"
     width="4200" height="5940" viewBox="0 0 1050 1485">
<defs>
</defs>
<rect x="-1050" y="-1485" width="2100" height="2970" fill="white" />
<path d="M173.20508075688775,50.0 L173.20508075688775,250.0" stroke="brown" stroke-width="2" />
<path d="M86.60254037844388,150.0 L259.8076211353316,150.0" stroke="brown" stroke-width="2" />
<path d="M173.20508075688775,50.0 L259.8076211353316,100.0 L259.8076211353316,200.0 L173.20508075688775,250.0 L86.60254037844388,200.0 L86.60254037844388,100.0 L173.20508075688775,50.0 Z" stroke="black" stroke-width="1" fill="none" transform="none" />
<path d="M346.4101615137755,50.0 L346.4101615137755,250.0" stroke="brown" stroke-width="2" />
<path d="M259.8076211353316,150.0 L433.0127018922194,150.0" stroke="brown" stroke-width="2" />
<path d="M346.4101615137755,50.0 L433.0127018922194,100.0 L433.0127018922194,200.0 L346.4101615137755,250.0 L259.8076211353316,200.0 L259.8076211353316,100.0 L346.4101615137755,50.0 Z" stroke="black" stroke-width="1" fill="none" transform="none" />
<path d="M519.6152422706632,50.0 L519.6152422706632,250.0" stroke="brown" stroke-width="2" />
<path d="M433.0127018922193,150.0 L606.2177826491071,150.0" stroke="brown" stroke-width="2" />
<path d="M519.6152422706632,50.0 L606.2177826491071,100.0 L606.2177826491071,200.0 L519.6152422706632,250.0 L433.0127018922193,200.0 L433.0127018922193,100.0 L519.6152422706632,50.0 Z" stroke="black" stroke-width="1" fill="none" transform="none" />
<path d="M692.820323027551,50.0 L692.820323027551,250.0" stroke="brown" stroke-width="2" />
<path d="M606.2177826491071,150.0 L779.4228634059949,150.0" stroke="brown" stroke-width="2" />
<path d="M692.820323027551,50.0 L779.4228634059949,100.0 L779.4228634059949,200.0 L692.820323027551,250.0 L606.2177826491071,200.0 L606.2177826491071,100.0 L692.820323027551,50.0 Z" stroke="black" stroke-width="1" fill="none" transform="none" />
<path d="M866.0254037844388,50.0 L866.0254037844388,250.0" stroke="brown" stroke-width="2" />
<path d="M779.4228634059949,150.0 L952.6279441628827,150.0" stroke="brown" stroke-width="2" />
<path d="M866.0254037844388,50.0 L952.6279441628827,100.0 L952.6279441628827,200.0 L866.0254037844388,250.0 L779.4228634059949,200.0 L779.4228634059949,100.0 L866.0254037844388,50.0 Z" stroke="black" stroke-width="1" fill="none" transform="none" />
<path d="M259.8076211353316,200.0 L259.8076211353316,400.0" stroke="brown" stroke-width="2" />
<path d="M173.20508075688772,300.0 L346.4101615137755,300.0" stroke="brown" stroke-width="2" />
<path d="M259.8076211353316,200.0 L346.4101615137755,250.0 L346.4101615137755,350.0 L259.8076211353316,400.0 L173.20508075688772,350.0 L173.20508075688772,250.0 L259.8076211353316,200.0 Z" stroke="black" stroke-width="1" fill="none" transform="none" />
<path d="M433.0127018922194,200.0 L433.0127018922194,400.0" stroke="brown" stroke-width="2" />
<path d="M346.4101615137755,300.0 L519.6152422706633,300.0" stroke="brown" stroke-width="2" />
<path d="M433.0127018922194,200.0 L519.6152422706633,250.0 L519.6152422706633,350.0 L433.0127018922194,400.0 L346.4101615137755,350.0 L346.4101615137755,250.0 L433.0127018922194,200.0 Z" stroke="black" stroke-width="1" fill="none" transform="none" />
<path d="M606.2177826491071,200.0 L606.2177826491071,400.0" stroke="brown" stroke-width="2" />
<path d="M519.6152422706632,300.0 L692.820323027551,300.0" stroke="brown" stroke-width="2" />
<path d="M606.2177826491071,200.0 L692.820323027551,250.0 L692.820323027551,350.0 L606.2177826491071,400.0 L519.6152422706632,350.0 L519.6152422706632,250.0 L606.2177826491071,200.0 Z" stroke="black" stroke-width="1" fill="none" transform="none" />
<path d="M779.4228634059949,200.0 L779.4228634059949,400.0" stroke="brown" stroke-width="2" />
<path d="M692.820323027551,300.0 L866.0254037844388,300.0" stroke="brown" stroke-width="2" />
<path d="M779.4228634059949,200.0 L866.0254037844388,250.0 L866.0254037844388,350.0 L779.4228634059949,400.0 L692.820323027551,350.0 L692.820323027551,250.0 L779.4228634059949,200.0 Z" stroke="black" stroke-width="1" fill="none" transform="none" />
<path d="M173.20508075688775,350.0 L173.20508075688775,550.0" stroke="brown" stroke-width="2" />
<path d="M86.60254037844388,450.0 L259.8076211353316,450.0" stroke="brown" stroke-width="2" />
<path d="M173.20508075688775,350.0 L259.8076211353316,400.0 L259.8076211353316,500.0 L173.20508075688775,550.0 L86.60254037844388,500.0 L86.60254037844388,400.0 L173.20508075688775,350.0 Z" stroke="black" stroke-width="1" fill="none" transform="none" />
<path d="M346.4101615137755,350.0 L346.4101615137755,550.0" stroke="brown" stroke-width="2" />
<path d="M259.8076211353316,450.0 L433.0127018922194,450.0" stroke="brown" stroke-width="2" />
<path d="M346.4101615137755,350.0 L433.0127018922194,400.0 L433.0127018922194,500.0 L346.4101615137755,550.0 L259.8076211353316,500.0 L259.8076211353316,400.0 L346.4101615137755,350.0 Z" stroke="black" stroke-width="1" fill="none" transform="none" />
<path d="M519.6152422706632,350.0 L519.6152422706632,550.0" stroke="brown" stroke-width="2" />
<path d="M433.0127018922193,450.0 L606.2177826491071,450.0" stroke="brown" stroke-width="2" />
<path d="M519.6152422706632,350.0 L606.2177826491071,400.0 L606.2177826491071,500.0 L519.6152422706632,550.0 L433.0127018922193,500.0 L433.0127018922193,400.0 L519.6152422706632,350.0 Z" stroke="black" stroke-width="1" fill="none" transform="none" />
<path d="M692.820323027551,350.0 L692.820323027551,550.0" stroke="brown" stroke-width="2" />
<path d="M606.2177826491071,450.0 L779.4228634059949,450.0" stroke="brown" stroke-width="2" />
<path d="M692.820323027551,350.0 L779.4228634059949,400.0 L779.4228634059949,500.0 L692.820323027551,550.0 L606.2177826491071,500.0 L606.2177826491071,400.0 L692.820323027551,350.0 Z" stroke="black" stroke-width="1" fill="none" transform="none" />
<path d="M866.0254037844388,350.0 L866.0254037844388,550.0" stroke="brown" stroke-width="2" />
<path d="M779.4228634059949,450.0 L952.6279441628827,450.0" stroke="brown" stroke-width="2" />
<path d="M866.0254037844388,350.0 L952.6279441628827,400.0 L952.6279441628827,500.0 L866.0254037844388,550.0 L779.4228634059949,500.0 L779.4228634059949,400.0 L866.0254037844388,350.0 Z" stroke="black" stroke-width="1" fill="none" transform="none" />
<path d="M259.8076211353316,500.0 L259.8076211353316,700.0" stroke="brown" stroke-width="2" />
<path d="M173.20508075688772,600.0 L346.4101615137755,600.0" stroke="brown" stroke-width="2" />
<path d="M259.8076211353316,500.0 L346.4101615137755,550.0 L346.4101615137755,650.0 L259.8076211353316,700.0 L173.20508075688772,650.0 L173.20508075688772,550.0 L259.8076211353316,500.0 Z" stroke="black" stroke-width="1" fill="none" transform="none" />
<path d="M433.0127018922194,500.0 L433.0127018922194,700.0" stroke="brown" stroke-width="2" />
<path d="M346.4101615137755,600.0 L519.6152422706633,600.0" stroke="brown" stroke-width="2" />
<path d="M433.0127018922194,500.0 L519.6152422706633,550.0 L519.6152422706633,650.0 L433.0127018922194,700.0 L346.4101615137755,650.0 L346.4101615137755,550.0 L433.0127018922194,500.0 Z" stroke="black" stroke-width="1" fill="none" transform="none" />
<path d="M606.2177826491071,500.0 L606.2177826491071,700.0" stroke="brown" stroke-width="2" />
<path d="M519.6152422706632,600.0 L692.820323027551,600.0" stroke="brown" stroke-width="2" />
<path d="M606.2177826491071,500.0 L692.820323027551,550.0 L692.820323027551,650.0 L606.2177826491071,700.0 L519.6152422706632,650.0 L519.6152422706632,550.0 L606.2177826491071,500.0 Z" stroke="black" stroke-width="1" fill="none" transform="none" />
<path d="M779.4228634059949,500.0 L779.4228634059949,700.0" stroke="brown" stroke-width="2" />
<path d="M692.820323027551,600.0 L866.0254037844388,600.0" stroke="brown" stroke-width="2" />
<path d="M779.4228634059949,500.0 L866.0254037844388,550.0 L866.0254037844388,650.0 L779.4228634059949,700.0 L692.820323027551,650.0 L692.820323027551,550.0 L779.4228634059949,500.0 Z" stroke="black" stroke-width="1" fill="none" transform="none" />
<path d="M173.20508075688775,650.0 L173.20508075688775,850.0" stroke="brown" stroke-width="2" />
<path d="M86.60254037844388,750.0 L259.8076211353316,750.0" stroke="brown" stroke-width="2" />
<path d="M173.20508075688775,650.0 L259.8076211353316,700.0 L259.8076211353316,800.0 L173.20508075688775,850.0 L86.60254037844388,800.0 L86.60254037844388,700.0 L173.20508075688775,650.0 Z" stroke="black" stroke-width="1" fill="none" transform="none" />
<path d="M346.4101615137755,650.0 L346.4101615137755,850.0" stroke="brown" stroke-width="2" />
<path d="M259.8076211353316,750.0 L433.0127018922194,750.0" stroke="brown" stroke-width="2" />
<path d="M346.4101615137755,650.0 L433.0127018922194,700.0 L433.0127018922194,800.0 L346.4101615137755,850.0 L259.8076211353316,800.0 L259.8076211353316,700.0 L346.4101615137755,650.0 Z" stroke="black" stroke-width="1" fill="none" transform="none" />
<path d="M519.6152422706632,650.0 L519.6152422706632,850.0" stroke="brown" stroke-width="2" />
<path d="M433.0127018922193,750.0 L606.2177826491071,750.0" stroke="brown" stroke-width="2" />
<path d="M519.6152422706632,650.0 L606.2177826491071,700.0 L606.2177826491071,800.0 L519.6152422706632,850.0 L433.0127018922193,800.0 L433.0127018922193,700.0 L519.6152422706632,650.0 Z" stroke="black" stroke-width="1" fill="none" transform="none" />
<path d="M692.820323027551,650.0 L692.820323027551,850.0" stroke="brown" stroke-width="2" />
<path d="M606.2177826491071,750.0 L779.4228634059949,750.0" stroke="brown" stroke-width="2" />
<path d="M692.820323027551,650.0 L779.4228634059949,700.0 L779.4228634059949,800.0 L692.820323027551,850.0 L606.2177826491071,800.0 L606.2177826491071,700.0 L692.820323027551,650.0 Z" stroke="black" stroke-width="1" fill="none" transform="none" />
<path d="M866.0254037844388,650.0 L866.0254037844388,850.0" stroke="brown" stroke-width="2" />
<path d="M779.4228634059949,750.0 L952.6279441628827,750.0" stroke="brown" stroke-width="2" />
<path d="M866.0254037844388,650.0 L952.6279441628827,700.0 L952.6279441628827,800.0 L866.0254037844388,850.0 L779.4228634059949,800.0 L779.4228634059949,700.0 L866.0254037844388,650.0 Z" stroke="black" stroke-width="1" fill="none" transform="none" />
<path d="M259.8076211353316,800.0 L259.8076211353316,1000.0" stroke="brown" stroke-width="2" />
<path d="M173.20508075688772,900.0 L346.4101615137755,900.0" stroke="brown" stroke-width="2" />
<path d="M259.8076211353316,800.0 L346.4101615137755,850.0 L346.4101615137755,950.0 L259.8076211353316,1000.0 L173.20508075688772,950.0 L173.20508075688772,850.0 L259.8076211353316,800.0 Z" stroke="black" stroke-width="1" fill="none" transform="none" />
<path d="M433.0127018922194,800.0 L433.0127018922194,1000.0" stroke="brown" stroke-width="2" />
<path d="M346.4101615137755,900.0 L519.6152422706633,900.0" stroke="brown" stroke-width="2" />
<path d="M433.0127018922194,800.0 L519.6152422706633,850.0 L519.6152422706633,950.0 L433.0127018922194,1000.0 L346.4101615137755,950.0 L346.4101615137755,850.0 L433.0127018922194,800.0 Z" stroke="black" stroke-width="1" fill="none" transform="none" />
<path d="M606.2177826491071,800.0 L606.2177826491071,1000.0" stroke="brown" stroke-width="2" />
<path d="M519.6152422706632,900.0 L692.820323027551,900.0" stroke="brown" stroke-width="2" />
<path d="M606.2177826491071,800.0 L692.820323027551,850.0 L692.820323027551,950.0 L606.2177826491071,1000.0 L519.6152422706632,950.0 L519.6152422706632,850.0 L606.2177826491071,800.0 Z" stroke="black" stroke-width="1" fill="none" transform="none" />
<path d="M779.4228634059949,800.0 L779.4228634059949,1000.0" stroke="brown" stroke-width="2" />
<path d="M692.820323027551,900.0 L866.0254037844388,900.0" stroke="brown" stroke-width="2" />
<path d="M779.4228634059949,800.0 L866.0254037844388,850.0 L866.0254037844388,950.0 L779.4228634059949,1000.0 L692.820323027551,950.0 L692.820323027551,850.0 L779.4228634059949,800.0 Z" stroke="black" stroke-width="1" fill="none" transform="none" />
</svg>