<?xml version="1.0" encoding="UTF-8"?>
<svg xmlns="http://www.w3.org/2000/svg" xmlns:xlink="http://www.w3.org/1999/xlink"
     width="4200" height="5940" viewBox="0 0 1050 1485">
<defs>
</defs>
<rect x="-1050" y="-1485" width="2100" height="2970" fill="white" />
<path d="M138.5640646055102,40.0 L138.5640646055102,200.0" stroke="brown" stroke-width="2" />
<path d="M69.2820323027551,120.0 L207.84609690826528,120.0" stroke="brown" stroke-width="2" />
<path d="M138.5640646055102,40.0 L207.84609690826528,80.0 L207.84609690826528,160.0 L138.5640646055102,200.0 L69.2820323027551,160.0 L69.2820323027551,80.0 L138.5640646055102,40.0 Z" stroke="black" stroke-width="3" fill="none" transform="none" />
<path d="M277.1281292110204,40.0 L277.1281292110204,200.0" stroke="brown" stroke-width="2" />
<path d="M207.84609690826528,120.0 L346.4101615137755,120.0" stroke="brown" stroke-width="2" />
<path d="M277.1281292110204,40.0 L346.4101615137755,80.0 L346.4101615137755,160.0 L277.1281292110204,200.0 L207.84609690826528,160.0 L207.84609690826528,80.0 L277.1281292110204,40.0 Z" stroke="black" stroke-width="3" fill="none" transform="none" />
<path d="M415.69219381653056,40.0 L415.69219381653056,200.0" stroke="brown" stroke-width="2" />
<path d="M346.41016151377545,120.0 L484.9742261192857,120.0" stroke="brown" stroke-width="2" />
<path d="M415.69219381653056,40.0 L484.9742261192857,80.0 L484.9742261192857,160.0 L415.69219381653056,200.0 L346.41016151377545,160.0 L346.41016151377545,80.0 L415.69219381653056,40.0 Z" stroke="black" stroke-width="3" fill="none" transform="none" />
<path d="M554.2562584220408,40.0 L554.2562584220408,200.0" stroke="brown" stroke-width="2" />
<path d="M484.9742261192857,120.0 L623.5382907247958,120.0" stroke="brown" stroke-width="2" />
<path d="M554.2562584220408,40.0 L623.5382907247958,80.0 L623.5382907247958,160.0 L554.2562584220408,200.0 L484.9742261192857,160.0 L484.9742261192857,80.0 L554.2562584220408,40.0 Z" stroke="black" stroke-width="3" fill="none" transform="none" />
<path d="M692.820323027551,40.0 L692.820323027551,200.0" stroke="brown" stroke-width="2" />
<path d="M623.538290724796,120.0 L762.1023553303061,120.0" stroke="brown" stroke-width="2" />
<path d="M692.820323027551,40.0 L762.1023553303061,80.0 L762.1023553303061,160.0 L692.820323027551,200.0 L623.538290724796,160.0 L623.538290724796,80.0 L692.820323027551,40.0 Z" stroke="black" stroke-width="3" fill="none" transform="none" />
<path d="M831.3843876330611,40.0 L831.3843876330611,200.0" stroke="brown" stroke-width="2" />
<path d="M762.1023553303061,120.0 L900.6664199358162,120.0" stroke="brown" stroke-width="2" />
<path d="M831.3843876330611,40.0 L900.6664199358162,80.0 L900.6664199358162,160.0 L831.3843876330611,200.0 L762.1023553303061,160.0 L762.1023553303061,80.0 L831.3843876330611,40.0 Z" stroke="black" stroke-width="3" fill="none" transform="none" />
<path d="M969.9484522385713,40.0 L969.9484522385713,200.0" stroke="brown" stroke-width="2" />
<path d="M900.6664199358163,120.0 L1039.2304845413264,120.0" stroke="brown" stroke-width="2" />
<path d="M969.9484522385713,40.0 L1039.2304845413264,80.0 L1039.2304845413264,160.0 L969.9484522385713,200.0 L900.6664199358163,160.0 L900.6664199358163,80.0 L969.9484522385713,40.0 Z" stroke="black" stroke-width="3" fill="none" transform="none" />
<path d="M207.84609690826528,160.0 L207.84609690826528,320.0" stroke="brown" stroke-width="2" />
<path d="M138.56406460551017,240.0 L277.1281292110204,240.0" stroke="brown" stroke-width="2" />
<path d="M207.84609690826528,160.0 L277.1281292110204,200.0 L277.1281292110204,280.0 L207.84609690826528,320.0 L138.56406460551017,280.0 L138.56406460551017,200.0 L207.84609690826528,160.0 Z" stroke="black" stroke-width="3" fill="none" transform="none" />
<path d="M346.4101615137755,160.0 L346.4101615137755,320.0" stroke="brown" stroke-width="2" />
<path d="M277.1281292110204,240.0 L415.6921938165306,240.0" stroke="brown" stroke-width="2" />
<path d="M346.4101615137755,160.0 L415.6921938165306,200.0 L415.6921938165306,280.0 L346.4101615137755,320.0 L277.1281292110204,280.0 L277.1281292110204,200.0 L346.4101615137755,160.0 Z" stroke="black" stroke-width="3" fill="none" transform="none" />
<path d="M484.9742261192857,160.0 L484.9742261192857,320.0" stroke="brown" stroke-width="2" />
<path d="M415.69219381653056,240.0 L554.2562584220408,240.0" stroke="brown" stroke-width="2" />
<path d="M484.9742261192857,160.0 L554.2562584220408,200.0 L554.2562584220408,280.0 L484.9742261192857,320.0 L415.69219381653056,280.0 L415.69219381653056,200.0 L484.9742261192857,160.0 Z" stroke="black" stroke-width="3" fill="none" transform="none" />
<path d="M623.5382907247958,160.0 L623.5382907247958,320.0" stroke="brown" stroke-width="2" />
<path d="M554.2562584220408,240.0 L692.8203230275509,240.0" stroke="brown" stroke-width="2" />
<path d="M623.5382907247958,160.0 L692.8203230275509,200.0 L692.8203230275509,280.0 L623.5382907247958,320.0 L554.2562584220408,280.0 L554.2562584220408,200.0 L623.5382907247958,160.0 Z" stroke="black" stroke-width="3" fill="none" transform="none" />
<path d="M762.1023553303061,160.0 L762.1023553303061,320.0" stroke="brown" stroke-width="2" />
<path d="M692.820323027551,240.0 L831.3843876330611,240.0" stroke="brown" stroke-width="2" />
<path d="M762.1023553303061,160.0 L831.3843876330611,200.0 L831.3843876330611,280.0 L762.1023553303061,320.0 L692.820323027551,280.0 L692.820323027551,200.0 L762.1023553303061,160.0 Z" stroke="black" stroke-width="3" fill="none" transform="none" />
<path d="M900.6664199358163,160.0 L900.6664199358163,320.0" stroke="brown" stroke-width="2" />
<path d="M831.3843876330612,240.0 L969.9484522385713,240.0" stroke="brown" stroke-width="2" />
<path d="M900.6664199358163,160.0 L969.9484522385713,200.0 L969.9484522385713,280.0 L900.6664199358163,320.0 L831.3843876330612,280.0 L831.3843876330612,200.0 L900.6664199358163,160.0 Z" stroke="black" stroke-width="3" fill="none" transform="none" />
<path d="M138.5640646055102,280.0 L138.5640646055102,440.0" stroke="brown" stroke-width="2" />
<path d="M69.2820323027551,360.0 L207.84609690826528,360.0" stroke="brown" stroke-width="2" />
<path d="M138.5640646055102,280.0 L207.84609690826528,320.0 L207.84609690826528,400.0 L138.5640646055102,440.0 L69.2820323027551,400.0 L69.2820323027551,320.0 L138.5640646055102,280.0 Z" stroke="black" stroke-width="3" fill="none" transform="none" />
<path d="M277.1281292110204,280.0 L277.1281292110204,440.0" stroke="brown" stroke-width="2" />
<path d="M207.84609690826528,360.0 L346.4101615137755,360.0" stroke="brown" stroke-width="2" />
<path d="M277.1281292110204,280.0 L346.4101615137755,320.0 L346.4101615137755,400.0 L277.1281292110204,440.0 L207.84609690826528,400.0 L207.84609690826528,320.0 L277.1281292110204,280.0 Z" stroke="black" stroke-width="3" fill="none" transform="none" />
<path d="M415.69219381653056,280.0 L415.69219381653056,440.0" stroke="brown" stroke-width="2" />
<path d="M346.41016151377545,360.0 L484.9742261192857,360.0" stroke="brown" stroke-width="2" />
<path d="M415.69219381653056,280.0 L484.9742261192857,320.0 L484.9742261192857,400.0 L415.69219381653056,440.0 L346.41016151377545,400.0 L346.41016151377545,320.0 L415.69219381653056,280.0 Z" stroke="black" stroke-width="3" fill="none" transform="none" />
<path d="M554.2562584220408,280.0 L554.2562584220408,440.0" stroke="brown" stroke-width="2" />
<path d="M484.9742261192857,360.0 L623.5382907247958,360.0" stroke="brown" stroke-width="2" />
<path d="M554.2562584220408,280.0 L623.5382907247958,320.0 L623.5382907247958,400.0 L554.2562584220408,440.0 L484.9742261192857,400.0 L484.9742261192857,320.0 L554.2562584220408,280.0 Z" stroke="black" stroke-width="3" fill="none" transform="none" />
<path d="M692.820323027551,280.0 L692.820323027551,440.0" stroke="brown" stroke-width="2" />
<path d="M623.538290724796,360.0 L762.1023553303061,360.0" stroke="brown" stroke-width="2" />
<path d="M692.820323027551,280.0 L762.1023553303061,320.0 L762.1023553303061,400.0 L692.820323027551,440.0 L623.538290724796,400.0 L623.538290724796,320.0 L692.820323027551,280.0 Z" stroke="black" stroke-width="3" fill="none" transform="none" />
<path d="M831.3843876330611,280.0 L831.3843876330611,440.0" stroke="brown" stroke-width="2" />
<path d="M762.1023553303061,360.0 L900.6664199358162,360.0" stroke="brown" stroke-width="2" />
<path d="M831.3843876330611,280.0 L900.6664199358162,320.0 L900.6664199358162,400.0 L831.3843876330611,440.0 L762.1023553303061,400.0 L762.1023553303061,320.0 L831.3843876330611,280.0 Z" stroke="black" stroke-width="3" fill="none" transform="none" />
<path d="M969.9484522385713,280.0 L969.9484522385713,440.0" stroke="brown" stroke-width="2" />
<path d="M900.6664199358163,360.0 L1039.2304845413264,360.0" stroke="brown" stroke-width="2" />
<path d="M969.9484522385713,280.0 L1039.2304845413264,320.0 L1039.2304845413264,400.0 L969.9484522385713,440.0 L900.6664199358163,400.0 L900.6664199358163,320.0 L969.9484522385713,280.0 Z" stroke="black" stroke-width="3" fill="none" transform="none" />
<path d="M207.84609690826528,400.0 L207.84609690826528,560.0" stroke="brown" stroke-width="2" />
<path d="M138.56406460551017,480.0 L277.1281292110204,480.0" stroke="brown" stroke-width="2" />
<path d="M207.84609690826528,400.0 L277.1281292110204,440.0 L277.1281292110204,520.0 L207.84609690826528,560.0 L138.56406460551017,520.0 L138.56406460551017,440.0 L207.84609690826528,400.0 Z" stroke="black" stroke-width="3" fill="none" transform="none" />
<path d="M346.4101615137755,400.0 L346.4101615137755,560.0" stroke="brown" stroke-width="2" />
<path d="M277.1281292110204,480.0 L415.6921938165306,480.0" stroke="brown" stroke-width="2" />
<path d="M346.4101615137755,400.0 L415.6921938165306,440.0 L415.6921938165306,520.0 L346.4101615137755,560.0 L277.1281292110204,520.0 L277.1281292110204,440.0 L346.4101615137755,400.0 Z" stroke="black" stroke-width="3" fill="none" transform="none" />
<path d="M484.9742261192857,400.0 L484.9742261192857,560.0" stroke="brown" stroke-width="2" />
<path d="M415.69219381653056,480.0 L554.2562584220408,480.0" stroke="brown" stroke-width="2" />
<path d="M484.9742261192857,400.0 L554.2562584220408,440.0 L554.2562584220408,520.0 L484.9742261192857,560.0 L415.69219381653056,520.0 L415.69219381653056,440.0 L484.9742261192857,400.0 Z" stroke="black" stroke-width="3" fill="none" transform="none" />
<path d="M623.5382907247958,400.0 L623.5382907247958,560.0" stroke="brown" stroke-width="2" />
<path d="M554.2562584220408,480.0 L692.8203230275509,480.0" stroke="brown" stroke-width="2" />
<path d="M623.5382907247958,400.0 L692.8203230275509,440.0 L692.8203230275509,520.0 L623.5382907247958,560.0 L554.2562584220408,520.0 L554.2562584220408,440.0 L623.5382907247958,400.0 Z" stroke="black" stroke-width="3" fill="none" transform="none" />
<path d="M762.1023553303061,400.0 L762.1023553303061,560.0" stroke="brown" stroke-width="2" />
<path d="M692.820323027551,480.0 L831.3843876330611,480.0" stroke="brown" stroke-width="2" />
<path d="M762.1023553303061,400.0 L831.3843876330611,440.0 L831.3843876330611,520.0 L762.1023553303061,560.0 L692.820323027551,520.0 L692.820323027551,440.0 L762.1023553303061,400.0 Z" stroke="black" stroke-width="3" fill="none" transform="none" />
<path d="M900.6664199358163,400.0 L900.6664199358163,560.0" stroke="brown" stroke-width="2" />
<path d="M831.3843876330612,480.0 L969.9484522385713,480.0" stroke="brown" stroke-width="2" />
<path d="M900.6664199358163,400.0 L969.9484522385713,440.0 L969.9484522385713,520.0 L900.6664199358163,560.0 L831.3843876330612,520.0 L831.3843876330612,440.0 L900.6664199358163,400.0 Z" stroke="black" stroke-width="3" fill="none" transform="none" />
<path d="M138.5640646055102,520.0 L138.5640646055102,680.0" stroke="brown" stroke-width="2" />
<path d="M69.2820323027551,600.0 L207.84609690826528,600.0" stroke="brown" stroke-width="2" />
<path d="M138.5640646055102,520.0 L207.84609690826528,560.0 L207.84609690826528,640.0 L138.5640646055102,680.0 L69.2820323027551,640.0 L69.2820323027551,560.0 L138.5640646055102,520.0 Z" stroke="black" stroke-width="3" fill="none" transform="none" />
<path d="M277.1281292110204,520.0 L277.1281292110204,680.0" stroke="brown" stroke-width="2" />
<path d="M207.84609690826528,600.0 L346.4101615137755,600.0" stroke="brown" stroke-width="2" />
<path d="M277.1281292110204,520.0 L346.4101615137755,560.0 L346.4101615137755,640.0 L277.1281292110204,680.0 L207.84609690826528,640.0 L207.84609690826528,560.0 L277.1281292110204,520.0 Z" stroke="black" stroke-width="3" fill="none" transform="none" />
<path d="M415.69219381653056,520.0 L415.69219381653056,680.0" stroke="brown" stroke-width="2" />
<path d="M346.41016151377545,600.0 L484.9742261192857,600.0" stroke="brown" stroke-width="2" />
<path d="M415.69219381653056,520.0 L484.9742261192857,560.0 L484.9742261192857,640.0 L415.69219381653056,680.0 L346.41016151377545,640.0 L346.41016151377545,560.0 L415.69219381653056,520.0 Z" stroke="black" stroke-width="3" fill="none" transform="none" />
<path d="M554.2562584220408,520.0 L554.2562584220408,680.0" stroke="brown" stroke-width="2" />
<path d="M484.9742261192857,600.0 L623.5382907247958,600.0" stroke="brown" stroke-width="2" />
<path d="M554.2562584220408,520.0 L623.5382907247958,560.0 L623.5382907247958,640.0 L554.2562584220408,680.0 L484.9742261192857,640.0 L484.9742261192857,560.0 L554.2562584220408,520.0 Z" stroke="black" stroke-width="3" fill="none" transform="none" />
<path d="M692.820323027551,520.0 L692.820323027551,680.0" stroke="brown" stroke-width="2" />
<path d="M623.538290724796,600.0 L762.1023553303061,600.0" stroke="brown" stroke-width="2" />
<path d="M692.820323027551,520.0 L762.1023553303061,560.0 L762.1023553303061,640.0 L692.820323027551,680.0 L623.538290724796,640.0 L623.538290724796,560.0 L692.820323027551,520.0 Z" stroke="black" stroke-width="3" fill="none" transform="none" />
<path d="M831.3843876330611,520.0 L831.3843876330611,680.0" stroke="brown" stroke-width="2" />
<path d="M762.1023553303061,600.0 L900.6664199358162,600.0" stroke="brown" stroke-width="2" />
<path d="M831.3843876330611,520.0 L900.6664199358162,560.0 L900.6664199358162,640.0 L831.3843876330611,680.0 L762.1023553303061,640.0 L762.1023553303061,560.0 L831.3843876330611,520.0 Z" stroke="black" stroke-width="3" fill="none" transform="none" />
<path d="M969.9484522385713,520.0 L969.9484522385713,680.0" stroke="brown" stroke-width="2" />
<path d="M900.6664199358163,600.0 L1039.2304845413264,600.0" stroke="brown" stroke-width="2" />
<path d="M969.9484522385713,520.0 L1039.2304845413264,560.0 L1039.2304845413264,640.0 L969.9484522385713,680.0 L900.6664199358163,640.0 L900.6664199358163,560.0 L969.9484522385713,520.0 Z" stroke="black" stroke-width="3" fill="none" transform="none" />
<path d="M207.84609690826528,640.0 L207.84609690826528,800.0" stroke="brown" stroke-width="2" />
<path d="M138.56406460551017,720.0 L277.1281292110204,720.0" stroke="brown" stroke-width="2" />
<path d="M207.84609690826528,640.0 L277.1281292110204,680.0 L277.1281292110204,760.0 L207.84609690826528,800.0 L138.56406460551017,760.0 L138.56406460551017,680.0 L207.84609690826528,640.0 Z" stroke="black" stroke-width="3" fill="none" transform="none" />
<path d="M346.4101615137755,640.0 L346.4101615137755,800.0" stroke="brown" stroke-width="2" />
<path d="M277.1281292110204,720.0 L415.6921938165306,720.0" stroke="brown" stroke-width="2" />
<path d="M346.4101615137755,640.0 L415.6921938165306,680.0 L415.6921938165306,760.0 L346.4101615137755,800.0 L277.1281292110204,760.0 L277.1281292110204,680.0 L346.4101615137755,640.0 Z" stroke="black" stroke-width="3" fill="none" transform="none" />
<path d="M484.9742261192857,640.0 L484.9742261192857,800.0" stroke="brown" stroke-width="2" />
<path d="M415.69219381653056,720.0 L554.2562584220408,720.0" stroke="brown" stroke-width="2" />
<path d="M484.9742261192857,640.0 L554.2562584220408,680.0 L554.2562584220408,760.0 L484.9742261192857,800.0 L415.69219381653056,760.0 L415.69219381653056,680.0 L484.9742261192857,640.0 Z" stroke="black" stroke-width="3" fill="none" transform="none" />
<path d="M623.5382907247958,640.0 L623.5382907247958,800.0" stroke="brown" stroke-width="2" />
<path d="M554.2562584220408,720.0 L692.8203230275509,720.0" stroke="brown" stroke-width="2" />
<path d="M623.5382907247958,640.0 L692.8203230275509,680.0 L692.8203230275509,760.0 L623.5382907247958,800.0 L554.2562584220408,760.0 L554.2562584220408,680.0 L623.5382907247958,640.0 Z" stroke="black" stroke-width="3" fill="none" transform="none" />
<path d="M762.1023553303061,640.0 L762.1023553303061,800.0" stroke="brown" stroke-width="2" />
<path d="M692.820323027551,720.0 L831.3843876330611,720.0" stroke="brown" stroke-width="2" />
<path d="M762.1023553303061,640.0 L831.3843876330611,680.0 L831.3843876330611,760.0 L762.1023553303061,800.0 L692.820323027551,760.0 L692.820323027551,680.0 L762.1023553303061,640.0 Z" stroke="black" stroke-width="3" fill="none" transform="none" />
<path d="M900.6664199358163,640.0 L900.6664199358163,800.0" stroke="brown" stroke-width="2" />
<path d="M831.3843876330612,720.0 L969.9484522385713,720.0" stroke="brown" stroke-width="2" />
<path d="M900.6664199358163,640.0 L969.9484522385713,680.0 L969.9484522385713,760.0 L900.6664199358163,800.0 L831.3843876330612,760.0 L831.3843876330612,680.0 L900.6664199358163,640.0 Z" stroke="black" stroke-width="3" fill="none" transform="none" />
<path d="M138.5640646055102,760.0 L138.5640646055102,920.0" stroke="brown" stroke-width="2" />
<path d="M69.2820323027551,840.0 L207.84609690826528,840.0" stroke="brown" stroke-width="2" />
<path d="M138.5640646055102,760.0 L207.84609690826528,800.0 L207.84609690826528,880.0 L138.5640646055102,920.0 L69.2820323027551,880.0 L69.2820323027551,800.0 L138.5640646055102,760.0 Z" stroke="black" stroke-width="3" fill="none" transform="none" />
<path d="M277.1281292110204,760.0 L277.1281292110204,920.0" stroke="brown" stroke-width="2" />
<path d="M207.84609690826528,840.0 L346.4101615137755,840.0" stroke="brown" stroke-width="2" />
<path d="M277.1281292110204,760.0 L346.4101615137755,800.0 L346.4101615137755,880.0 L277.1281292110204,920.0 L207.84609690826528,880.0 L207.84609690826528,800.0 L277.1281292110204,760.0 Z" stroke="black" stroke-width="3" fill="none" transform="none" />
<path d="M415.69219381653056,760.0 L415.69219381653056,920.0" stroke="brown" stroke-width="2" />
<path d="M346.41016151377545,840.0 L484.9742261192857,840.0" stroke="brown" stroke-width="2" />
<path d="M415.69219381653056,760.0 L484.9742261192857,800.0 L484.9742261192857,880.0 L415.69219381653056,920.0 L346.41016151377545,880.0 L346.41016151377545,800.0 L415.69219381653056,760.0 Z" stroke="black" stroke-width="3" fill="none" transform="none" />
<path d="M554.2562584220408,760.0 L554.2562584220408,920.0" stroke="brown" stroke-width="2" />
<path d="M484.9742261192857,840.0 L623.5382907247958,840.0" stroke="brown" stroke-width="2" />
<path d="M554.2562584220408,760.0 L623.5382907247958,800.0 L623.5382907247958,880.0 L554.2562584220408,920.0 L484.9742261192857,880.0 L484.9742261192857,800.0 L554.2562584220408,760.0 Z" stroke="black" stroke-width="3" fill="none" transform="none" />
<path d="M692.820323027551,760.0 L692.820323027551,920.0" stroke="brown" stroke-width="2" />
<path d="M623.538290724796,840.0 L762.1023553303061,840.0" stroke="brown" stroke-width="2" />
<path d="M692.820323027551,760.0 L762.1023553303061,800.0 L762.1023553303061,880.0 L692.820323027551,920.0 L623.538290724796,880.0 L623.538290724796,800.0 L692.820323027551,760.0 Z" stroke="black" stroke-width="3" fill="none" transform="none" />
<path d="M831.3843876330611,760.0 L831.3843876330611,920.0" stroke="brown" stroke-width="2" />
<path d="M762.1023553303061,840.0 L900.6664199358162,840.0" stroke="brown" stroke-width="2" />
<path d="M831.3843876330611,760.0 L900.6664199358162,800.0 L900.6664199358162,880.0 L831.3843876330611,920.0 L762.1023553303061,880.0 L762.1023553303061,800.0 L831.3843876330611,760.0 Z" stroke="black" stroke-width="3" fill="none" transform="none" />
<path d="M969.9484522385713,760.0 L969.9484522385713,920.0" stroke="brown" stroke-width="2" />
<path d="M900.6664199358163,840.0 L1039.2304845413264,840.0" stroke="brown" stroke-width="2" />
<path d="M969.9484522385713,760.0 L1039.2304845413264,800.0 L1039.2304845413264,880.0 L969.9484522385713,920.0 L900.6664199358163,880.0 L900.6664199358163,800.0 L969.9484522385713,760.0 Z" stroke="black" stroke-width="3" fill="none" transform="none" />
<path d="M207.84609690826528,880.0 L207.84609690826528,1040.0" stroke="brown" stroke-width="2" />
<path d="M138.56406460551017,960.0 L277.1281292110204,960.0" stroke="brown" stroke-width="2" />
<path d="M207.84609690826528,880.0 L277.1281292110204,920.0 L277.1281292110204,1000.0 L207.84609690826528,1040.0 L138.56406460551017,1000.0 L138.56406460551017,920.0 L207.84609690826528,880.0 Z" stroke="black" stroke-width="3" fill="none" transform="none" />
<path d="M346.4101615137755,880.0 L346.4101615137755,1040.0" stroke="brown" stroke-width="2" />
<path d="M277.1281292110204,960.0 L415.6921938165306,960.0" stroke="brown" stroke-width="2" />
<path d="M346.4101615137755,880.0 L415.6921938165306,920.0 L415.6921938165306,1000.0 L346.4101615137755,1040.0 L277.1281292110204,1000.0 L277.1281292110204,920.0 L346.4101615137755,880.0 Z" stroke="black" stroke-width="3" fill="none" transform="none" />
<path d="M484.9742261192857,880.0 L484.9742261192857,1040.0" stroke="brown" stroke-width="2" />
<path d="M415.69219381653056,960.0 L554.2562584220408,960.0" stroke="brown" stroke-width="2" />
<path d="M484.9742261192857,880.0 L554.2562584220408,920.0 L554.2562584220408,1000.0 L484.9742261192857,1040.0 L415.69219381653056,1000.0 L415.69219381653056,920.0 L484.9742261192857,880.0 Z" stroke="black" stroke-width="3" fill="none" transform="none" />
<path d="M623.5382907247958,880.0 L623.5382907247958,1040.0" stroke="brown" stroke-width="2" />
<path d="M554.2562584220408,960.0 L692.8203230275509,960.0" stroke="brown" stroke-width="2" />
<path d="M623.5382907247958,880.0 L692.8203230275509,920.0 L692.8203230275509,1000.0 L623.5382907247958,1040.0 L554.2562584220408,1000.0 L554.2562584220408,920.0 L623.5382907247958,880.0 Z" stroke="black" stroke-width="3" fill="none" transform="none" />
<path d="M762.1023553303061,880.0 L762.1023553303061,1040.0" stroke="brown" stroke-width="2" />
<path d="M692.820323027551,960.0 L831.3843876330611,960.0" stroke="brown" stroke-width="2" />
<path d="M762.1023553303061,880.0 L831.3843876330611,920.0 L831.3843876330611,1000.0 L762.1023553303061,1040.0 L692.820323027551,1000.0 L692.820323027551,920.0 L762.1023553303061,880.0 Z" stroke="black" stroke-width="3" fill="none" transform="none" />
<path d="M900.6664199358163,880.0 L900.6664199358163,1040.0" stroke="brown" stroke-width="2" />
<path d="M831.3843876330612,960.0 L969.9484522385713,960.0" stroke="brown" stroke-width="2" />
<path d="M900.6664199358163,880.0 L969.9484522385713,920.0 L969.9484522385713,1000.0 L900.6664199358163,1040.0 L831.3843876330612,1000.0 L831.3843876330612,920.0 L900.6664199358163,880.0 Z" stroke="black" stroke-width="3" fill="none" transform="none" />
<path d="M138.5640646055102,1000.0 L138.5640646055102,1160.0" stroke="brown" stroke-width="2" />
<path d="M69.2820323027551,1080.0 L207.84609690826528,1080.0" stroke="brown" stroke-width="2" />
<path d="M138.5640646055102,1000.0 L207.84609690826528,1040.0 L207.84609690826528,1120.0 L138.5640646055102,1160.0 L69.2820323027551,1120.0 L69.2820323027551,1040.0 L138.5640646055102,1000.0 Z" stroke="black" stroke-width="3" fill="none" transform="none" />
<path d="M277.1281292110204,1000.0 L277.1281292110204,1160.0" stroke="brown" stroke-width="2" />
<path d="M207.84609690826528,1080.0 L346.4101615137755,1080.0" stroke="brown" stroke-width="2" />
<path d="M277.1281292110204,1000.0 L346.4101615137755,1040.0 L346.4101615137755,1120.0 L277.1281292110204,1160.0 L207.84609690826528,1120.0 L207.84609690826528,1040.0 L277.1281292110204,1000.0 Z" stroke="black" stroke-width="3" fill="none" transform="none" />
<path d="M415.69219381653056,1000.0 L415.69219381653056,1160.0" stroke="brown" stroke-width="2" />
<path d="M346.41016151377545,1080.0 L484.9742261192857,1080.0" stroke="brown" stroke-width="2" />
<path d="M415.69219381653056,1000.0 L484.9742261192857,1040.0 L484.9742261192857,1120.0 L415.69219381653056,1160.0 L346.41016151377545,1120.0 L346.41016151377545,1040.0 L415.69219381653056,1000.0 Z" stroke="black" stroke-width="3" fill="none" transform="none" />
<path d="M554.2562584220408,1000.0 L554.2562584220408,1160.0" stroke="brown" stroke-width="2" />
<path d="M484.9742261192857,1080.0 L623.5382907247958,1080.0" stroke="brown" stroke-width="2" />
<path d="M554.2562584220408,1000.0 L623.5382907247958,1040.0 L623.5382907247958,1120.0 L554.2562584220408,1160.0 L484.9742261192857,1120.0 L484.9742261192857,1040.0 L554.2562584220408,1000.0 Z" stroke="black" stroke-width="3" fill="none" transform="none" />
<path d="M692.820323027551,1000.0 L692.820323027551,1160.0" stroke="brown" stroke-width="2" />
<path d="M623.538290724796,1080.0 L762.1023553303061,1080.0" stroke="brown" stroke-width="2" />
<path d="M692.820323027551,1000.0 L762.1023553303061,1040.0 L762.1023553303061,1120.0 L692.820323027551,1160.0 L623.538290724796,1120.0 L623.538290724796,1040.0 L692.820323027551,1000.0 Z" stroke="black" stroke-width="3" fill="none" transform="none" />
<path d="M831.3843876330611,1000.0 L831.3843876330611,1160.0" stroke="brown" stroke-width="2" />
<path d="M762.1023553303061,1080.0 L900.6664199358162,1080.0" stroke="brown" stroke-width="2" />
<path d="M831.3843876330611,1000.0 L900.6664199358162,1040.0 L900.6664199358162,1120.0 L831.3843876330611,1160.0 L762.1023553303061,1120.0 L762.1023553303061,1040.0 L831.3843876330611,1000.0 Z" stroke="black" stroke-width="3" fill="none" transform="none" />
<path d="M969.9484522385713,1000.0 L969.9484522385713,1160.0" stroke="brown" stroke-width="2" />
<path d="M900.6664199358163,1080.0 L1039.2304845413264,1080.0" stroke="brown" stroke-width="2" />
<path d="M969.9484522385713,1000.0 L1039.2304845413264,1040.0 L1039.2304845413264,1120.0 L969.9484522385713,1160.0 L900.6664199358163,1120.0 L900.6664199358163,1040.0 L969.9484522385713,1000.0 Z" stroke="black" stroke-width="3" fill="none" transform="none" />
<path d="M207.84609690826528,1120.0 L207.84609690826528,1280.0" stroke="brown" stroke-width="2" />
<path d="M138.56406460551017,1200.0 L277.1281292110204,1200.0" stroke="brown" stroke-width="2" />
<path d="M207.84609690826528,1120.0 L277.1281292110204,1160.0 L277.1281292110204,1240.0 L207.84609690826528,1280.0 L138.56406460551017,1240.0 L138.56406460551017,1160.0 L207.84609690826528,1120.0 Z" stroke="black" stroke-width="3" fill="none" transform="none" />
<path d="M346.4101615137755,1120.0 L346.4101615137755,1280.0" stroke="brown" stroke-width="2" />
<path d="M277.1281292110204,1200.0 L415.6921938165306,1200.0" stroke="brown" stroke-width="2" />
<path d="M346.4101615137755,1120.0 L415.6921938165306,1160.0 L415.6921938165306,1240.0 L346.4101615137755,1280.0 L277.1281292110204,1240.0 L277.1281292110204,1160.0 L346.4101615137755,1120.0 Z" stroke="black" stroke-width="3" fill="none" transform="none" />
<path d="M484.9742261192857,1120.0 L484.9742261192857,1280.0" stroke="brown" stroke-width="2" />
<path d="M415.69219381653056,1200.0 L554.2562584220408,1200.0" stroke="brown" stroke-width="2" />
<path d="M484.9742261192857,1120.0 L554.2562584220408,1160.0 L554.2562584220408,1240.0 L484.9742261192857,1280.0 L415.69219381653056,1240.0 L415.69219381653056,1160.0 L484.9742261192857,1120.0 Z" stroke="black" stroke-width="3" fill="none" transform="none" />
<path d="M623.5382907247958,1120.0 L623.5382907247958,1280.0" stroke="brown" stroke-width="2" />
<path d="M554.2562584220408,1200.0 L692.8203230275509,1200.0" stroke="brown" stroke-width="2" />
<path d="M623.5382907247958,1120.0 L692.8203230275509,1160.0 L692.8203230275509,1240.0 L623.5382907247958,1280.0 L554.2562584220408,1240.0 L554.2562584220408,1160.0 L623.5382907247958,1120.0 Z" stroke="black" stroke-width="3" fill="none" transform="none" />
<path d="M762.1023553303061,1120.0 L762.1023553303061,1280.0" stroke="brown" stroke-width="2" />
<path d="M692.820323027551,1200.0 L831.3843876330611,1200.0" stroke="brown" stroke-width="2" />
<path d="M762.1023553303061,1120.0 L831.3843876330611,1160.0 L831.3843876330611,1240.0 L762.1023553303061,1280.0 L692.820323027551,1240.0 L692.820323027551,1160.0 L762.1023553303061,1120.0 Z" stroke="black" stroke-width="3" fill="none" transform="none" />
<path d="M900.6664199358163,1120.0 L900.6664199358163,1280.0" stroke="brown" stroke-width="2" />
<path d="M831.3843876330612,1200.0 L969.9484522385713,1200.0" stroke="brown" stroke-width="2" />
<path d="M900.6664199358163,1120.0 L969.9484522385713,1160.0 L969.9484522385713,1240.0 L900.6664199358163,1280.0 L831.3843876330612,1240.0 L831.3843876330612,1160.0 L900.6664199358163,1120.0 Z" stroke="black" stroke-width="3" fill="none" transform="none" />
</svg>